<svg width="49" height="40" viewBox="0 0 49 40" fill="none" xmlns="http://www.w3.org/2000/svg">
<path d="M47.8674 20.45C47.8674 19.1333 47.7281 17.8833 47.4895 16.6666H25.0146V24.1833H37.883C37.3062 26.65 35.6156 28.7333 33.1096 30.15V35.15H40.7868C45.2818 31.6666 47.8674 26.5333 47.8674 20.45Z" fill="#4285F4"/>
<path d="M25.0147 40C31.4588 40 36.8488 38.2 40.7869 35.15L33.1097 30.15C30.9616 31.35 28.2368 32.0833 25.0147 32.0833C18.7894 32.0833 13.5188 28.5667 11.6293 23.8167H3.71338V28.9667C7.63156 35.5 15.6867 40 25.0147 40Z" fill="#34A853"/>
<path d="M11.6291 23.8167C11.1319 22.6167 10.8733 21.3333 10.8733 20C10.8733 18.6667 11.1517 17.3833 11.6291 16.1833V11.0333H3.71317C2.08225 13.7333 1.14746 16.7667 1.14746 20C1.14746 23.2333 2.08225 26.2667 3.71317 28.9667L11.6291 23.8167Z" fill="#FBBC05"/>
<path d="M25.0147 7.91667C28.5351 7.91667 31.6776 8.93334 34.1638 10.9167L40.9659 5.21667C36.8488 1.98334 31.4589 0 25.0147 0C15.6867 0 7.63156 4.5 3.71338 11.0333L11.6293 16.1833C13.5188 11.4333 18.7894 7.91667 25.0147 7.91667Z" fill="#EA4335"/>
</svg>
